/* XPM */
static char * battery_on_6_xpm[] = {
"24 16 3 1",
" 	c None",
".	c #F8F8FF",
"+	c #A8A8AA",
"                        ",
" ....................   ",
" .                  .   ",
" . ++++++++++++     .   ",
" . ++++++++++++     ... ",
" . +++.........       . ",
" . ++.........+       . ",
" . +++++++...++       . ",
" . ++++++...+++       . ",
" . +++++.........     . ",
" . ++++.........      . ",
" . ++++++++++++     ... ",
" . ++++++++++++     .   ",
" .                  .   ",
" ....................   ",
"                        "};
