/* XPM */
static char * battery_on_0_xpm[] = {
"24 16 2 1",
" 	c None",
".	c #F8F8FF",
"                        ",
" ....................   ",
" .                  .   ",
" .                  .   ",
" .                  ... ",
" .    .........       . ",
" .   .........        . ",
" .        ...         . ",
" .       ...          . ",
" .      .........     . ",
" .     .........      . ",
" .                  ... ",
" .                  .   ",
" .                  .   ",
" ....................   ",
"                        "};
