/* XPM */
static char *_456b06353424a13da9b6f52962b1515OxsrXNYHYmNOIgFW[] = {
/* columns rows colors chars-per-pixel */
"18 18 2 1 ",
"  c None",
". c white",
/* pixels */
"      ......      ",
"    ..........    ",
"   ............   ",
"  ..............  ",
"  ..............  ",
" . ...            ",
"..  .  ....  .....",
"...   ...... .....",
"....  ...... .....",
"....  ...... .....",
"..... ...... .....",
".....  ....  .....",
" .....      ..... ",
" ........  ...... ",
"  ........ .....  ",
"   ...... .....   ",
"    ..... ....    ",
"      .. ...      "
};
