/* XPM */
static char * battery_idle_xpm[] = {
"24 16 2 1",
" 	c None",
".	c #F8F8FF",
"                        ",
" ....................   ",
" .                  .   ",
" . ................ .   ",
" . ................ ... ",
" . ................   . ",
" . ................   . ",
" . ................   . ",
" . ................   . ",
" . ................   . ",
" . ................   . ",
" . ................ ... ",
" . ................ .   ",
" .                  .   ",
" ....................   ",
"                        "};
