/* XPM */
static char * cpu_2_xpm[] = {
"16 16 3 1",
" 	c None",
".	c #F8F8FF",
"+	c #98C379",
"                ",
"    . .  . .    ",
"    . .  . .    ",
"   ..........   ",
" +++        ... ",
"   +        .   ",
" +++  +  +  ... ",
"   +        .   ",
"   +        .   ",
" +++  +  +  ... ",
"   +        .   ",
" +++        ... ",
"   +.........   ",
"    . .  . .    ",
"    . .  . .    ",
"                "};
