/* XPM */
static char * cpu_4_xpm[] = {
"16 16 3 1",
" 	c None",
".	c #98C379",
"+	c #F8F8FF",
"                ",
"    . .  . .    ",
"    . .  . .    ",
"   .........+   ",
" ...        +++ ",
"   .        +   ",
" ...  .  .  +++ ",
"   .        +   ",
"   .        +   ",
" ...  .  .  +++ ",
"   .        +   ",
" ...        +++ ",
"   .+++++++++   ",
"    + +  + +    ",
"    + +  + +    ",
"                "};
