/* XPM */
static char * cpu_7_xpm[] = {
"16 16 5 1",
" 	c None",
".	c #98C379",
"+	c #DA9A66",
"@	c #E06C75",
"#	c #F8F8FF",
"                ",
"    . .  . .    ",
"    . .  . .    ",
"   .........+   ",
" ...        +++ ",
"   .        +   ",
" ...  @  @  +++ ",
"   .        +   ",
"   .        +   ",
" ...  @  @  +++ ",
"   .        +   ",
" ...        +++ ",
"   .####@@@@@   ",
"    # #  @ @    ",
"    # #  @ @    ",
"                "};
