/* XPM */
static char * cpu_5_xpm[] = {
"16 16 4 1",
" 	c None",
".	c #98C379",
"+	c #DA9A66",
"@	c #F8F8FF",
"                ",
"    . .  . .    ",
"    . .  . .    ",
"   .........+   ",
" ...        +++ ",
"   .        +   ",
" ...  +  +  +++ ",
"   .        +   ",
"   .        @   ",
" ...  +  +  @@@ ",
"   .        @   ",
" ...        @@@ ",
"   .@@@@@@@@@   ",
"    @ @  @ @    ",
"    @ @  @ @    ",
"                "};
