/* XPM */
static char * calendar_xpm[] = {
"16 14 2 1",
" 	c None",
".	c #F8F8FF",
"   ...    ...   ",
"   . .    . .   ",
" ... ...... ... ",
" ... ...... ... ",
" .............. ",
" .            . ",
" .            . ",
" .            . ",
" .            . ",
" .            . ",
" .            . ",
" .            . ",
" .            . ",
" .............. "};
